<svg xmlns="http://www.w3.org/2000/svg" viewBox="0 0 173.17 173.17">
  <g fill="#23E5E5">
    <path d="m173.17,160.99c0,7.54-6.42,13.23-13.48,12.01-39.42-6.79-69.5-42.9-69.5-86.42,0-43.52,30.08-79.62,69.5-86.42,7.05-1.22,13.48,4.47,13.48,12.01v148.82Z"/>
    <rect x="0" y="0" width="75.76" height="75.76" rx="37.88" ry="37.88"/>
    <path d="m10.82,86.58h0c41.81,0,75.76,33.95,75.76,75.76v.09c0,5.92-4.81,10.73-10.73,10.73H10.73C4.81,173.17,0,168.36,0,162.44v-65.03C0,91.43,4.85,86.58,10.82,86.58Z"/>
  </g>
</svg>
